# xmcd
#
# Track frame offsets: 
#        150
#        14442
#        31945
#
# Disc length: 615 seconds
#
# Revision: 2
# Processed by: cddbd v1.5.2PL0 Copyright (c) Steve Scherf et al.
# Submitted via: ExactAudioCopyFreeDBPlugin 1.0
#
DISCID=19026503
DTITLE=Mariah Carey - I'll Be Lovin' U Long Time
DYEAR=2008
DGENRE=R&B
TTITLE0=I'll Be Lovin' U Long Time (Album Version)
TTITLE1=I'll Be Lovin' U Long Time (Remix) (Feat. T.I.)
TTITLE2=I'll Be Lovin' U Long Time (Instrumental)
EXTD=
EXTT0=
EXTT1=
EXTT2=
PLAYORDER=
